<?xml version="1.0" standalone="no"?>
<!DOCTYPE svg PUBLIC "-//W3C//DTD SVG 20010904//EN"
 "http://www.w3.org/TR/2001/REC-SVG-20010904/DTD/svg10.dtd">
<svg version="1.0" xmlns="http://www.w3.org/2000/svg"
 width="176.000000pt" height="176.000000pt" viewBox="0 0 176.000000 176.000000"
 preserveAspectRatio="xMidYMid meet">
<metadata>
Created by potrace 1.14, written by Peter Selinger 2001-2017
</metadata>
<g transform="translate(0.000000,176.000000) scale(0.100000,-0.100000)"
fill="#000000" stroke="none">
<path d="M504 1632 c-18 -2 -41 -14 -56 -30 -27 -29 -98 -148 -98 -163 0 -5
-3 -9 -7 -9 -5 0 -17 -20 -28 -45 -10 -24 -21 -43 -23 -40 -2 2 -19 -27 -38
-63 -19 -36 -40 -70 -47 -74 -7 -4 -8 -8 -4 -8 5 0 0 -12 -11 -27 -11 -16 -32
-52 -47 -80 -15 -29 -30 -53 -34 -53 -4 0 -8 -6 -8 -12 0 -7 -17 -40 -37 -73
-40 -65 -46 -120 -16 -153 8 -9 20 -26 25 -38 24 -49 210 -369 217 -372 5 -2
8 -8 8 -13 0 -18 121 -224 146 -249 24 -25 25 -25 227 -27 546 -6 622 -5 647
7 29 14 40 30 195 300 65 113 124 212 131 221 8 9 12 18 9 21 -3 3 4 13 15 23
11 10 20 21 20 26 0 4 16 36 36 71 31 55 35 69 30 107 -3 25 -10 47 -15 50 -5
4 -21 30 -36 59 -15 29 -31 55 -36 58 -5 3 -9 14 -9 25 0 10 -3 19 -8 19 -4 0
-16 17 -27 38 -11 20 -36 64 -55 97 -20 33 -39 67 -43 75 -4 8 -18 33 -32 55
-13 22 -29 51 -35 64 -6 13 -19 36 -30 51 -11 15 -17 29 -14 32 2 3 -2 11 -11
18 -8 7 -15 18 -15 24 0 15 -40 60 -66 74 -14 7 -125 11 -325 12 -167 1 -340
2 -384 3 -44 1 -94 1 -111 -1z m806 -56 c13 -6 55 -71 104 -161 9 -16 25 -43
35 -60 10 -16 29 -51 44 -77 14 -25 37 -64 51 -87 14 -22 26 -45 26 -49 0 -5
8 -20 18 -33 10 -13 34 -53 53 -89 19 -36 37 -67 41 -68 5 -2 6 -8 2 -13 -3
-5 -1 -9 4 -9 23 0 45 -95 25 -109 -4 -3 -14 -17 -22 -31 -142 -247 -216 -376
-221 -380 -3 -3 -13 -21 -24 -40 -79 -148 -126 -219 -149 -226 -16 -6 -538 -8
-790 -4 -20 0 -60 39 -80 79 -24 46 -80 146 -87 156 -4 6 -19 30 -32 55 -33
59 -94 165 -124 215 -13 22 -32 57 -41 78 -10 20 -21 37 -25 37 -5 0 -8 6 -8
13 0 7 -8 24 -17 37 -35 50 -31 65 72 240 24 41 44 81 45 88 0 6 4 12 9 12 5
0 22 25 38 56 15 30 36 64 45 74 10 11 18 25 18 33 0 7 5 18 11 24 12 12 27
38 55 93 10 19 28 49 41 66 13 17 20 34 16 37 -3 4 -1 7 5 7 7 0 12 8 12 17 0
9 3 14 6 10 4 -3 12 0 19 7 10 10 98 12 412 11 219 -1 405 -5 413 -9z"/>
<path d="M501 1513 c-13 -13 -21 -23 -18 -23 4 0 -14 -33 -38 -74 -25 -40 -45
-79 -45 -85 0 -6 -4 -11 -9 -11 -5 0 -11 -8 -14 -17 -6 -18 -37 -74 -47 -83
-3 -3 -11 -16 -17 -30 -7 -14 -24 -43 -38 -65 -14 -22 -28 -47 -32 -55 -4 -8
-28 -51 -53 -95 -25 -44 -49 -88 -53 -97 -6 -17 1 -31 197 -370 53 -93 96
-172 96 -178 0 -5 5 -10 10 -10 6 0 10 -4 10 -10 0 -5 14 -32 30 -59 l31 -49
142 -1 c597 -5 620 -4 635 15 8 11 18 31 24 46 5 16 14 28 19 28 5 0 9 4 9 9
0 7 51 98 129 229 17 29 31 57 31 62 0 6 4 10 8 10 5 0 16 15 25 33 9 17 28
50 42 72 14 22 28 47 32 55 4 8 17 32 31 52 27 42 25 55 -20 132 -17 27 -46
80 -65 116 -20 36 -41 72 -47 80 -7 8 -18 29 -26 45 -8 17 -17 32 -20 35 -3 3
-10 14 -16 25 -33 61 -104 188 -126 226 -35 61 -9 57 -418 61 l-374 3 -25 -22z
m428 -127 c7 -15 14 -49 15 -75 l2 -46 54 -11 c65 -13 97 -27 167 -70 28 -18
54 -30 57 -27 3 4 6 2 6 -4 0 -17 38 -22 57 -7 26 20 56 17 71 -6 11 -17 10
-26 -4 -50 l-17 -28 -71 25 c-39 14 -82 33 -96 43 -29 19 -62 34 -72 32 -5 -1
-8 2 -8 7 0 10 -78 38 -120 43 -24 3 -25 1 -24 -54 0 -32 -2 -58 -6 -58 -10 0
-10 -9 -14 -215 -2 -104 1 -201 6 -215 6 -14 11 -52 12 -85 2 -33 4 -65 4 -71
1 -6 19 -14 40 -18 39 -6 59 -21 119 -89 18 -21 36 -37 41 -37 5 0 16 -7 23
-16 29 -35 -6 -40 -268 -39 -136 1 -258 5 -270 9 -23 7 -32 36 -12 36 6 0 39
29 74 64 46 48 72 66 99 71 49 10 56 22 57 100 0 22 5 55 10 73 17 52 17 370
1 417 -7 22 -12 60 -10 85 3 42 2 45 -22 44 -70 -3 -110 -18 -207 -76 -33 -20
-79 -42 -100 -48 -48 -15 -70 -44 -51 -67 17 -21 18 -61 1 -67 -8 -3 -11 -1
-8 4 11 17 -7 11 -22 -7 -12 -16 -13 -15 -2 7 17 33 18 119 3 128 -33 19 -8
84 29 77 12 -3 23 -9 25 -15 6 -18 37 -11 88 22 84 53 178 88 249 92 6 1 13
25 17 55 11 97 47 129 77 67z m409 -375 c0 -22 3 -44 6 -50 4 -6 2 -11 -3 -11
-6 0 -11 5 -11 11 0 5 -5 7 -10 4 -6 -4 -10 5 -8 24 1 17 6 31 10 31 4 0 8 7
8 15 0 8 2 15 4 15 3 0 5 -18 4 -39z m-917 -108 c-12 -20 -14 -14 -5 12 4 9 9
14 11 11 3 -2 0 -13 -6 -23z m57 -68 c-3 -3 -9 2 -12 12 -6 14 -5 15 5 6 7 -7
10 -15 7 -18z m-83 5 c3 -5 1 -10 -4 -10 -6 0 -11 5 -11 10 0 6 2 10 4 10 3 0
8 -4 11 -10z m-15 -28 c0 -5 -7 -17 -15 -28 -14 -18 -14 -17 -4 9 12 27 19 34
19 19z m97 -24 c4 -28 -6 -18 -12 12 -2 12 -1 20 2 16 4 -4 8 -16 10 -28z
m174 -75 c14 -14 -11 -43 -61 -68 -50 -26 -190 -25 -245 1 -36 17 -69 59 -60
74 7 11 354 5 366 -7z m615 3 c25 -1 47 1 50 5 2 4 17 4 32 0 29 -7 90 -6 99
2 6 7 63 -13 63 -21 -2 -40 -115 -89 -195 -85 -62 3 -145 28 -145 44 0 5 -6 9
-14 9 -18 0 -27 23 -15 41 5 8 9 10 9 6 0 -4 8 -3 18 2 9 6 25 8 35 5 10 -3
38 -7 63 -8z"/>
</g>
</svg>
